# xmcd
#
# Track frame offsets:
#	183
#	18008
#	35933
#
# Disc length: 740 seconds
#
# Revision: 3
# Processed by: cddbd v1.5.2PL0 Copyright (c) Steve Scherf et al.
# Submitted via: audiograbber 1.83.01
#
DISCID=1c02e203
DTITLE=David Hasselhoff - Everybody Sunshine
DYEAR=1992
DGENRE=Pop
TTITLE0=Everybody Sunshine
TTITLE1=Everybody Sunshine (Instrumental)
TTITLE2=It Feels So Right
EXTD=
EXTT0=
EXTT1=
EXTT2=
PLAYORDER=
